<svg width="18" height="18" viewBox="0 0 18 18" fill="none" xmlns="http://www.w3.org/2000/svg">
<path fill-rule="evenodd" clip-rule="evenodd" d="M3.10618 13.3558C2.11113 12.3398 1.43623 11.054 1.16519 9.65795C0.891911 8.25796 1.03224 6.80872 1.56904 5.48718C2.10125 4.17307 3.00986 3.0455 4.18079 2.24607C6.55653 0.623503 9.68408 0.623503 12.0597 2.24607C13.2308 3.0455 14.1394 4.17307 14.6715 5.48718C15.2084 6.80872 15.3487 8.25796 15.0753 9.65795C14.8044 11.054 14.1295 12.3398 13.1344 13.3558C11.8166 14.7081 10.0085 15.4708 8.12025 15.4708C6.23207 15.4708 4.42396 14.7081 3.10618 13.3558Z" stroke="white" stroke-width="2" stroke-linecap="round" stroke-linejoin="round"/>
<mask id="path-2-inside-1_26744_1881" fill="white">
<path d="M8.12783 3.56373C7.65392 3.61394 7.31048 4.03884 7.36064 4.51277C7.41092 4.98669 7.83582 5.33017 8.30974 5.27996L8.12783 3.56373ZM10.258 6.4277C10.4438 6.86661 10.9501 7.07175 11.3891 6.88593C11.8279 6.70014 12.033 6.19376 11.8472 5.75489L10.258 6.4277ZM13.8483 12.6347C13.511 12.298 12.9646 12.2985 12.628 12.6358C12.2912 12.9731 12.2918 13.5195 12.629 13.8561L13.8483 12.6347ZM16.5271 17.7473C16.8645 18.084 17.4107 18.0836 17.7475 17.7462C18.0842 17.4089 18.0837 16.8626 17.7464 16.5259L16.5271 17.7473ZM8.30974 5.27996C9.14101 5.19187 9.93213 5.6579 10.258 6.4277L11.8472 5.75489C11.2251 4.28528 9.71491 3.39557 8.12783 3.56373L8.30974 5.27996ZM12.629 13.8561L16.5271 17.7473L17.7464 16.5259L13.8483 12.6347L12.629 13.8561Z"/>
</mask>
<path d="M8.12783 3.56373C7.65392 3.61394 7.31048 4.03884 7.36064 4.51277C7.41092 4.98669 7.83582 5.33017 8.30974 5.27996L8.12783 3.56373ZM10.258 6.4277C10.4438 6.86661 10.9501 7.07175 11.3891 6.88593C11.8279 6.70014 12.033 6.19376 11.8472 5.75489L10.258 6.4277ZM13.8483 12.6347C13.511 12.298 12.9646 12.2985 12.628 12.6358C12.2912 12.9731 12.2918 13.5195 12.629 13.8561L13.8483 12.6347ZM16.5271 17.7473C16.8645 18.084 17.4107 18.0836 17.7475 17.7462C18.0842 17.4089 18.0837 16.8626 17.7464 16.5259L16.5271 17.7473ZM8.30974 5.27996C9.14101 5.19187 9.93213 5.6579 10.258 6.4277L11.8472 5.75489C11.2251 4.28528 9.71491 3.39557 8.12783 3.56373L8.30974 5.27996ZM12.629 13.8561L16.5271 17.7473L17.7464 16.5259L13.8483 12.6347L12.629 13.8561Z" fill="#F8F8F8"/>
<path d="M8.30974 5.27996L9.33315 5.17148L9.15125 3.45526L8.12783 3.56373L7.10442 3.6722L7.28632 5.38843L8.30974 5.27996ZM11.8472 5.75489L11.446 4.80718L9.85676 5.47999L10.258 6.4277L10.6592 7.37542L12.2484 6.70261L11.8472 5.75489ZM12.629 13.8561L13.3574 14.5832L14.5766 13.3617L13.8483 12.6347L13.1199 11.9076L11.9007 13.129L12.629 13.8561ZM17.7464 16.5259L17.018 15.7988L15.7987 17.0202L16.5271 17.7473L17.2555 18.4743L18.4747 17.2529L17.7464 16.5259ZM8.12783 3.56373L8.34469 5.61057L8.34472 5.61057L8.12783 3.56373ZM7.36064 4.51277L5.31379 4.72942L5.31384 4.72991L7.36064 4.51277ZM8.30974 5.27996L8.5266 7.32679L8.52663 7.32679L8.30974 5.27996ZM10.258 6.4277L8.36249 7.23001L8.36255 7.23015L10.258 6.4277ZM11.3891 6.88593L12.1915 8.78138L12.1916 8.78134L11.3891 6.88593ZM11.8472 5.75489L9.95177 6.55726L9.95183 6.5574L11.8472 5.75489ZM13.8483 12.6347L12.3941 14.0914L12.3941 14.0914L13.8483 12.6347ZM12.628 12.6358L14.0844 14.0903L14.0849 14.0898L12.628 12.6358ZM12.629 13.8561L11.1748 15.3128L11.1749 15.3128L12.629 13.8561ZM16.5271 17.7473L17.9813 16.2906L17.9813 16.2906L16.5271 17.7473ZM17.7475 17.7462L19.2042 19.2004L19.2044 19.2002L17.7475 17.7462ZM17.7464 16.5259L19.2005 15.0692L19.2005 15.0691L17.7464 16.5259ZM8.12783 3.56373L7.91098 1.5169C6.30641 1.6869 5.14401 3.12542 5.31379 4.72942L7.36064 4.51277L9.4075 4.29611C9.47695 4.95226 9.00143 5.54099 8.34469 5.61057L8.12783 3.56373ZM7.36064 4.51277L5.31384 4.72991C5.48402 6.334 6.92222 7.49677 8.5266 7.32679L8.30974 5.27996L8.09288 3.23312C8.74943 3.16356 9.33783 3.63938 9.40745 4.29562L7.36064 4.51277ZM10.258 6.4277L8.36255 7.23015C8.99156 8.71591 10.7058 9.41032 12.1915 8.78138L11.3891 6.88593L10.5867 4.99049C11.1945 4.73318 11.896 5.0173 12.1534 5.62525L10.258 6.4277ZM11.3891 6.88593L12.1916 8.78134C13.6772 8.15233 14.3716 6.43803 13.7426 4.95239L11.8472 5.75489L9.95183 6.5574C9.69444 5.94949 9.97857 5.24795 10.5866 4.99053L11.3891 6.88593ZM13.8483 12.6347L15.3025 11.178C14.1607 10.0382 12.3109 10.0397 11.1711 11.1819L12.628 12.6358L14.0849 14.0898C13.6184 14.5572 12.8614 14.5578 12.3941 14.0914L13.8483 12.6347ZM12.628 12.6358L11.1716 11.1814C10.031 12.3235 10.0334 14.1733 11.1748 15.3128L12.629 13.8561L14.0832 12.3994C14.5502 12.8656 14.5514 13.6226 14.0844 14.0903L12.628 12.6358ZM16.5271 17.7473L15.0729 19.204C16.2147 20.3438 18.0643 20.3423 19.2042 19.2004L17.7475 17.7462L16.2908 16.2921C16.7572 15.8249 17.5142 15.8243 17.9813 16.2906L16.5271 17.7473ZM17.7475 17.7462L19.2044 19.2002C20.3439 18.0584 20.3424 16.2091 19.2005 15.0692L17.7464 16.5259L16.2922 17.9825C15.825 17.5162 15.8244 16.7594 16.2906 16.2923L17.7475 17.7462ZM8.30974 5.27996L8.52663 7.32679C8.45669 7.3342 8.39 7.29501 8.36249 7.23001L10.258 6.4277L12.1535 5.62539C11.4743 4.02079 9.82534 3.04954 8.09284 3.23312L8.30974 5.27996ZM11.8472 5.75489L13.7427 4.95252C12.7672 2.64821 10.3993 1.25324 7.91095 1.5169L8.12783 3.56373L8.34472 5.61057C9.03053 5.5379 9.683 5.92235 9.95177 6.55726L11.8472 5.75489ZM12.629 13.8561L11.1749 15.3128L15.073 19.204L16.5271 17.7473L17.9813 16.2906L14.0832 12.3994L12.629 13.8561ZM17.7464 16.5259L19.2005 15.0691L15.3024 11.178L13.8483 12.6347L12.3941 14.0914L16.2922 17.9826L17.7464 16.5259Z" fill="white" mask="url(#path-2-inside-1_26744_1881)"/>
</svg>
