<svg width="60" height="60" viewBox="0 0 60 60" fill="none" xmlns="http://www.w3.org/2000/svg">
<path d="M39.8492 22.7999L29.9992 27.7499L20.1492 22.7999L7.94922 47.1499L15.5492 46.3999L19.4492 52.9499L29.9992 31.9499L40.5492 52.9499L44.4492 46.3999L52.0492 47.1499L39.8492 22.7999Z" fill="#E24255"/>
<path d="M29.9984 39.3C38.8902 39.3 46.0984 32.0918 46.0984 23.2C46.0984 14.3082 38.8902 7.09998 29.9984 7.09998C21.1067 7.09998 13.8984 14.3082 13.8984 23.2C13.8984 32.0918 21.1067 39.3 29.9984 39.3Z" fill="#FFC54D"/>
<path d="M29.9996 35.8499C36.986 35.8499 42.6496 30.1863 42.6496 23.1999C42.6496 16.2135 36.986 10.5499 29.9996 10.5499C23.0132 10.5499 17.3496 16.2135 17.3496 23.1999C17.3496 30.1863 23.0132 35.8499 29.9996 35.8499Z" fill="#E8B04B"/>
<path d="M30.5991 15.6L32.6991 19.8C32.7991 20 32.9991 20.15 33.1991 20.2L37.8491 20.9C38.3991 21 38.6491 21.65 38.2491 22.05L34.8991 25.35C34.7491 25.5 34.6491 25.75 34.6991 25.95L35.4991 30.6C35.5991 31.15 34.9991 31.6 34.4991 31.3L30.3491 29.1C30.1491 29 29.8991 29 29.6991 29.1L25.4991 31.3C24.9991 31.55 24.3991 31.15 24.4991 30.6L25.2991 25.95C25.3491 25.75 25.2491 25.5 25.0991 25.35L21.7491 22.05C21.3491 21.65 21.5491 20.95 22.1491 20.9L26.7991 20.2C26.9991 20.15 27.1991 20.05 27.2991 19.8L29.3991 15.6C29.6491 15.1 30.3491 15.1 30.5991 15.6Z" fill="white"/>
</svg>
