<svg width="60" height="60" viewBox="0 0 60 60" fill="none" xmlns="http://www.w3.org/2000/svg">
<path d="M39.8502 22.7999L30.0002 27.7499L20.1502 22.7999L7.9502 47.1499L15.5502 46.3999L19.4502 52.9499L30.0002 31.9499L40.5502 52.9499L44.4502 46.3999L52.0502 47.1499L39.8502 22.7999Z" fill="#E24255"/>
<path d="M30.0004 39.3C38.8922 39.3 46.1004 32.0918 46.1004 23.2C46.1004 14.3082 38.8922 7.09998 30.0004 7.09998C21.1086 7.09998 13.9004 14.3082 13.9004 23.2C13.9004 32.0918 21.1086 39.3 30.0004 39.3Z" fill="#FFC54D"/>
<path d="M30.0006 35.8499C36.987 35.8499 42.6506 30.1863 42.6506 23.1999C42.6506 16.2135 36.987 10.5499 30.0006 10.5499C23.0142 10.5499 17.3506 16.2135 17.3506 23.1999C17.3506 30.1863 23.0142 35.8499 30.0006 35.8499Z" fill="#E8B04B"/>
<path d="M30.6001 15.6L32.7001 19.8C32.8001 20 33.0001 20.15 33.2001 20.2L37.8501 20.9C38.4001 21 38.6501 21.65 38.2501 22.05L34.9001 25.35C34.7501 25.5 34.6501 25.75 34.7001 25.95L35.5001 30.6C35.6001 31.15 35.0001 31.6 34.5001 31.3L30.3501 29.1C30.1501 29 29.9001 29 29.7001 29.1L25.5001 31.3C25.0001 31.55 24.4001 31.15 24.5001 30.6L25.3001 25.95C25.3501 25.75 25.2501 25.5 25.1001 25.35L21.7501 22.05C21.3501 21.65 21.5501 20.95 22.1501 20.9L26.8001 20.2C27.0001 20.15 27.2001 20.05 27.3001 19.8L29.4001 15.6C29.6501 15.1 30.3501 15.1 30.6001 15.6Z" fill="white"/>
</svg>
