<svg width="285" height="147" viewBox="0 0 285 147" fill="none" xmlns="http://www.w3.org/2000/svg">
<path d="M42.3695 0.034852C42.3114 2.10282 41.2783 3.90358 40.6573 5.79147C38.4227 12.5995 35.4336 19.1171 32.6187 25.6928C29.7167 32.4195 26.6347 39.0532 23.6747 45.7393C22.0844 49.3408 20.494 52.9539 19.0837 56.6251C17.9809 59.4889 17.2728 62.5096 16.1817 65.3675C15.1369 68.0629 14.4404 70.8569 13.6453 73.6162C12.9894 75.9978 12.3336 78.4027 11.9041 80.8599C10.9745 85.4889 10.583 90.21 10.7375 94.929C10.8967 97.4153 11.2361 99.8867 11.7532 102.324C12.3025 105.089 13.0138 107.82 13.8833 110.503C15.1355 114.265 16.9941 117.797 19.3855 120.959C22.8692 125.695 27.5345 129.433 32.9147 131.798C36.3449 133.355 39.8795 134.435 43.7624 134.273C46.1769 134.174 48.6262 134.493 51.0059 134.174C53.9007 133.845 56.7589 133.248 59.5436 132.391C63.8485 130.964 67.9407 128.961 71.7089 126.437C76.2476 123.451 80.1479 119.698 84.0018 115.905C89.5853 110.404 95.0295 104.793 100.7 99.367C103.921 96.2941 107.177 93.2735 110.515 90.34C114.577 86.7679 118.872 83.469 123.371 80.4649C127.013 78.0265 130.8 75.8131 134.712 73.8369C137.434 72.5221 140.275 71.4698 143.197 70.6943C146.908 69.6822 150.753 69.2492 154.596 69.4105C157.329 69.5811 160.045 69.9539 162.722 70.5258C166.204 71.1474 169.658 72.042 173.076 72.9656C176.203 73.8591 179.28 74.9198 182.293 76.1431C186.24 77.6824 190.036 79.5471 193.901 81.2084C197.575 82.7768 201.313 83.9386 205.312 83.8747C207.459 83.8398 209.537 83.166 211.633 82.6316C214.507 81.8462 217.271 80.6984 219.857 79.216C226.241 75.7306 231.564 70.8744 236.282 65.3792C240.588 60.3034 244.508 54.9133 248.012 49.2537C251.245 44.107 254.211 38.7976 257.183 33.5173C259.289 29.7764 261.089 25.8728 263.207 22.1493C266.109 17.0317 268.68 11.7456 271.641 6.65699C272.923 4.46123 273.892 2.07378 275.407 0H284.984C284.616 1.29459 284.062 2.52915 283.341 3.66541C279.569 10.2818 276.139 17.0782 272.784 23.9094C269.063 31.461 265.181 38.9777 261.176 46.4073C257.858 52.6225 254.176 58.6356 250.148 64.4149C248.082 67.3658 245.795 70.1831 243.485 72.9714C241.089 75.8728 238.479 78.5912 235.679 81.1039C231.335 85.0853 226.506 88.5027 221.308 91.2752C217.615 93.2257 213.646 94.5971 209.537 95.3415C206.112 95.9343 202.602 95.8296 199.218 95.0336C195.527 94.1615 191.932 92.9239 188.486 91.3391C184.249 89.4048 180.105 87.2729 175.758 85.5651C172.59 84.3313 169.36 83.2611 166.082 82.3586C163.593 81.6615 161.068 81.1155 158.537 80.5636C156.361 80.0873 154.028 80.2035 151.764 80.2383C148.636 80.245 145.53 80.765 142.57 81.7777C136.46 84.0028 130.7 87.0936 125.466 90.9557C115.21 98.4608 106.568 107.668 97.8386 116.759C93.3231 121.464 88.9352 126.303 84.2049 130.793C78.8896 135.864 72.7753 140.023 66.108 143.102C62.2284 144.866 58.1578 146.174 53.9775 147H40.338C40.0746 146.886 39.8005 146.798 39.5197 146.739C35.9456 146.329 32.4455 145.425 29.1188 144.055C24.8538 142.384 20.909 139.988 17.4585 136.974C13.1519 133.152 9.91329 128.603 7.20281 123.613C5.97235 121.383 5.21783 118.966 4.26016 116.602C2.89882 113.216 1.83649 109.717 1.08535 106.146C0.679072 104.276 0.35985 102.388 0 100.506V83.3693C0.406282 80.9644 0.580404 78.4957 1.26528 76.1663C2.32742 72.4951 3.19802 68.7716 4.44009 65.1294C5.63572 61.644 6.7617 58.1238 8.00377 54.6734C9.95392 49.2478 12.2755 43.9734 14.6436 38.7279C17.4527 32.495 20.3548 26.3085 23.1001 20.0465C25.0096 15.6898 26.7798 11.2693 28.4804 6.82546C29.3336 4.60065 30.3899 2.42232 30.7614 0.0232406L42.3695 0.034852Z" fill="#98CB46"/>
<path d="M67.0354 0.0349655C66.1647 2.41661 65.3464 4.82149 64.4177 7.1799C61.951 13.4477 59.403 19.6807 56.3966 25.7161C54.9804 28.5683 53.6338 31.4495 52.1828 34.2842C49.6987 39.1172 47.2204 43.9561 44.8175 48.8065C42.5655 53.3723 40.3484 58.002 39.1063 62.9453C38.1603 66.6979 36.9995 70.5434 37.5334 74.476C38.0153 77.6672 39.0358 80.7531 40.5515 83.6018C41.7123 85.9253 43.4536 87.7958 44.9858 89.8347C47.0985 92.652 52.0087 93.3491 55.3402 92.6346C60.1402 91.6006 63.9592 88.702 68.1091 86.4598C71.725 84.5138 75.2423 82.3935 78.7015 80.2384C82.0446 78.1298 85.2774 75.8411 88.4406 73.4711C93.6643 69.5268 98.8879 65.4896 104.193 61.65C109.498 57.8103 114.953 53.8021 120.432 49.9915C126.753 45.5709 132.929 40.9122 140.033 37.7405C143.696 36.0947 147.54 34.8822 151.484 34.1274C154.372 33.599 157.308 33.3829 160.242 33.4826C165.518 33.6104 170.417 35.1614 175.176 37.4152C178.69 39.1141 182.018 41.1737 185.107 43.561C187.289 45.2224 189.274 47.1568 191.306 49.0156C193.209 50.7583 195.188 52.3441 197.69 53.1922C197.903 53.3038 198.132 53.3803 198.369 53.4187C200.406 53.3897 202.432 53.9996 204.394 53.9648C208.3 53.837 211.985 52.8727 215.276 50.3575C219.96 46.785 223.059 41.9694 226.426 37.3339C231.649 30.1541 236.327 22.6142 241.058 15.1091C244.244 10.0495 247.535 5.05966 250.779 0.0349655H259.486C256.885 4.42649 254.262 8.81221 251.691 13.2154C249.793 16.4567 247.79 19.64 245.887 22.8872C243.136 27.6447 240.117 32.2279 237.181 36.8285C234.801 40.5346 232.257 44.1206 229.548 47.5866C227.334 50.5134 224.912 53.2759 222.299 55.8527C218.985 59.0185 215.253 61.6035 210.83 62.9395C206.683 64.1288 202.328 64.4102 198.061 63.7644C193.99 63.1606 190.155 61.4734 186.958 58.8791C183.319 56.0153 180.046 52.7101 176.209 50.0961C173.655 48.4575 170.954 47.0594 168.142 45.9195C162.953 43.6482 157.491 44.3975 152.157 44.6066C148.953 44.7344 145.773 45.9601 142.842 47.4182C137.787 50.022 132.909 52.9561 128.239 56.2012C124.931 58.4318 121.744 60.8483 118.569 63.2881C114.785 66.1886 110.937 69.006 107.025 71.74C103.543 74.203 100.223 76.968 96.8101 79.553C94.3143 81.4467 91.8418 83.3752 89.2648 85.1411C85.6895 87.5925 82.0852 90.009 78.3648 92.2687C73.7216 95.086 69.0029 97.7813 64.1624 100.268C62.0404 101.392 59.8023 102.283 57.4877 102.922C55.0911 103.628 52.5624 103.761 50.105 103.311C45.8158 102.446 42.0374 100.761 39.1528 97.6187C35.0899 93.2213 32.0835 88.1734 30.6557 82.2483C29.9708 79.431 29.2975 76.6195 29.3846 73.7267C29.5558 70.5549 29.9593 67.3999 30.5918 64.2872C31.2387 60.8429 32.1884 57.4625 33.43 54.1855C34.6488 50.857 36.1115 47.6157 37.6379 44.4091C40.6212 38.1588 43.589 31.8987 46.5413 25.629C49.571 19.1927 52.119 12.5531 54.7018 5.93099C55.4621 3.9792 56.1412 1.98676 56.9073 0.0349655H67.0354Z" fill="#98CB46"/>
<path d="M222.003 0.0349126C218.852 6.89522 214.952 13.256 209.13 18.1877C205.587 21.265 201.37 23.464 196.82 24.6066C192.948 25.5592 189.309 25.5941 185.705 23.8746C182.443 22.3178 180.087 19.7097 177.846 16.9795C175.153 13.7033 172.716 10.2005 168.78 8.17319C165.682 6.53429 162.124 5.98207 158.676 6.60478C156.444 6.95338 154.299 7.72421 152.355 8.87606C143.533 14.4061 134.815 20.1105 125.743 25.2513C120.468 28.2371 115.47 31.7225 110.276 34.8651C105.83 37.5488 101.233 39.9827 96.23 41.5046C93.2432 42.5084 90.0652 42.8085 86.9435 42.3818C82.3409 41.6266 77.6281 38.5944 76.0784 33.2734C74.6274 28.3068 74.7725 23.3693 74.9176 18.4026C74.9988 15.8119 75.7708 13.2153 76.5195 10.671C77.6223 6.95912 79.2996 3.50863 80.9422 0.0349126H91.0992C90.5827 1.19669 90.0603 2.30619 89.5495 3.44473C87.9605 6.8341 86.6032 10.3275 85.4867 13.9008C85.1037 15.2252 85.1675 16.5787 84.8018 17.8682C83.879 21.1444 84.3607 24.3742 85.2197 27.5459C85.6899 29.2885 86.9609 30.2238 88.8705 30.5839C92.7534 31.31 96.1081 29.8288 99.4106 28.3359C104.466 26.0472 109.051 22.9162 113.776 20.0349C119.539 16.5148 125.32 13.0352 131.188 9.65445C136.493 6.59316 141.635 3.26466 146.812 0.0174866H176.732C177.968 0.941101 179.251 1.80662 180.423 2.80575C183.569 5.48365 186.071 8.76569 188.828 11.8096C189.153 12.2462 189.584 12.5921 190.081 12.8145C193.349 14.0983 196.466 13.1979 199.426 11.9373C204.928 9.61379 208.347 5.03637 211.289 0.06395L222.003 0.0349126Z" fill="#98CB46"/>
</svg>
