<svg width="264" height="137" viewBox="0 0 264 137" fill="none" xmlns="http://www.w3.org/2000/svg">
<path d="M224.75 136.144C224.804 134.228 225.761 132.56 226.336 130.811C228.406 124.504 231.175 118.467 233.783 112.375C236.471 106.144 239.326 99.9984 242.069 93.8047C243.542 90.4684 245.015 87.1213 246.322 83.7204C247.343 81.0674 247.999 78.2692 249.01 75.6217C249.978 73.1248 250.623 70.5365 251.359 67.9804C251.967 65.7741 252.575 63.5463 252.972 61.2701C253.834 56.9819 254.196 52.6084 254.053 48.2369C253.906 45.9337 253.591 43.6442 253.112 41.3866C252.603 38.8246 251.944 36.2946 251.139 33.8099C249.979 30.3247 248.257 27.0528 246.042 24.1238C242.815 19.7362 238.493 16.2737 233.509 14.0825C230.331 12.6404 227.057 11.6395 223.46 11.7902C221.223 11.8816 218.954 11.5857 216.75 11.8816C214.068 12.1865 211.42 12.7395 208.841 13.5337C204.853 14.8551 201.062 16.7105 197.571 19.0494C193.367 21.8153 189.754 25.2915 186.183 28.8054C181.011 33.9014 175.968 39.0996 170.715 44.1257C167.731 46.9723 164.714 49.7705 161.623 52.488C157.859 55.7971 153.881 58.8531 149.713 61.636C146.34 63.8948 142.831 65.9453 139.207 67.7759C136.686 68.994 134.053 69.9688 131.347 70.6871C127.909 71.6247 124.347 72.0259 120.787 71.8764C118.256 71.7184 115.74 71.373 113.26 70.8432C110.034 70.2674 106.835 69.4387 103.668 68.5831C100.771 67.7554 97.921 66.7728 95.1295 65.6396C91.4734 64.2136 87.9571 62.4862 84.3762 60.9472C80.9728 59.4943 77.5102 58.418 73.8057 58.4772C71.8163 58.5095 69.8914 59.1337 67.9504 59.6288C65.2873 60.3564 62.7272 61.4196 60.3317 62.7929C54.4174 66.0216 49.487 70.5203 45.1157 75.6109C41.1275 80.3129 37.4953 85.3061 34.2495 90.549C31.2547 95.3168 28.5072 100.235 25.7543 105.127C23.8026 108.592 22.1358 112.208 20.1734 115.658C17.485 120.398 15.1031 125.295 12.361 130.009C11.1728 132.043 10.2749 134.255 8.87158 136.176L6.10352e-05 136.176C0.341248 134.977 0.85376 133.833 1.52167 132.781C5.01651 126.651 8.19414 120.355 11.3019 114.027C14.7483 107.032 18.3453 100.068 22.0552 93.1858C25.1283 87.4282 28.5395 81.8579 32.2709 76.5042C34.185 73.7705 36.3034 71.1607 38.4433 68.5777C40.6632 65.8899 43.0804 63.3717 45.6749 61.0441C49.6991 57.3558 54.172 54.19 58.9876 51.6216C62.4081 49.8147 66.0856 48.5443 69.8914 47.8548C73.0648 47.3056 76.3162 47.4026 79.4512 48.14C82.8702 48.9479 86.2005 50.0943 89.3926 51.5624C93.3176 53.3544 97.1565 55.3293 101.184 56.9113C104.119 58.0543 107.11 59.0457 110.147 59.8817C112.453 60.5275 114.792 61.0333 117.136 61.5445C119.152 61.9858 121.314 61.8781 123.411 61.8459C126.308 61.8397 129.186 61.358 131.927 60.4198C137.588 58.3586 142.924 55.4953 147.773 51.9176C157.273 44.9651 165.279 36.4359 173.365 28.0144C177.549 23.6557 181.613 19.1731 185.995 15.0135C190.919 10.3162 196.583 6.46362 202.76 3.61076C206.354 1.97693 210.124 0.765273 213.997 -5.56707e-07L226.632 5.47895e-07C226.876 0.105713 227.13 0.186829 227.39 0.242158C230.701 0.62198 233.944 1.45862 237.025 2.72827C240.976 4.27616 244.631 6.49532 247.827 9.28791C251.816 12.8287 254.817 17.0422 257.328 21.6646C258.467 23.731 259.166 25.9696 260.054 28.1597C261.315 31.2963 262.299 34.5373 262.995 37.8458C263.371 39.5786 263.667 41.3274 264 43.0709L264 58.9454C263.624 61.1732 263.462 63.4602 262.828 65.6181C261.844 69.019 261.037 72.4683 259.887 75.8423C258.779 79.071 257.736 82.332 256.586 85.5284C254.779 90.5544 252.628 95.4406 250.435 100.3C247.832 106.074 245.144 111.805 242.601 117.606C240.832 121.642 239.192 125.737 237.617 129.853C236.826 131.914 235.848 133.932 235.504 136.155L224.75 136.144Z" fill="#98CB46"/>
<path d="M201.9 136.144C202.706 133.937 203.464 131.71 204.325 129.525C206.61 123.719 208.97 117.945 211.755 112.353C213.067 109.711 214.314 107.042 215.659 104.416C217.96 99.9391 220.256 95.4566 222.482 90.9633C224.568 86.7337 226.622 82.4449 227.772 77.8655C228.649 74.3893 229.724 70.8269 229.229 67.1839C228.783 64.2277 227.837 61.369 226.433 58.73C225.358 56.5776 223.745 54.8448 222.326 52.956C220.369 50.3462 215.82 49.7004 212.734 50.3623C208.287 51.3202 204.749 54.0054 200.905 56.0825C197.555 57.8852 194.297 59.8493 191.093 61.8457C187.996 63.7991 185.001 65.9193 182.07 68.1148C177.231 71.7686 172.392 75.5085 167.478 79.0655C162.564 82.6225 157.51 86.3355 152.434 89.8655C146.579 93.9606 140.858 98.2763 134.277 101.214C130.883 102.739 127.323 103.862 123.669 104.562C120.994 105.051 118.274 105.251 115.556 105.159C110.668 105.04 106.13 103.604 101.721 101.516C98.4663 99.942 95.3832 98.034 92.522 95.8225C90.5004 94.2835 88.6616 92.4915 86.7797 90.7696C85.0162 89.1552 83.1827 87.6861 80.8654 86.9005C80.6684 86.7971 80.4559 86.7262 80.2363 86.6906C78.3491 86.7175 76.4726 86.1525 74.6553 86.1848C71.0368 86.3032 67.6226 87.1964 64.5741 89.5265C60.2351 92.8359 57.364 97.2969 54.2455 101.591C49.4065 108.242 45.0729 115.227 40.6909 122.179C37.7391 126.866 34.6905 131.489 31.685 136.144L23.62 136.144C26.0287 132.075 28.459 128.013 30.8408 123.934C32.599 120.931 34.454 117.982 36.2175 114.974C38.7661 110.567 41.5619 106.321 44.2825 102.059C46.487 98.6261 48.8437 95.3041 51.3528 92.0933C53.4039 89.3821 55.6482 86.8229 58.0683 84.4359C61.1384 81.5032 64.5956 79.1085 68.6926 77.8709C72.5349 76.7692 76.5693 76.5085 80.5213 77.1067C84.2929 77.6661 87.8452 79.2291 90.8069 81.6323C94.178 84.2852 97.2105 87.3471 100.764 89.7687C103.131 91.2865 105.633 92.5817 108.238 93.6377C113.045 95.7418 118.104 95.0476 123.045 94.8539C126.013 94.7355 128.96 93.6001 131.675 92.2494C136.358 89.8372 140.877 87.1193 145.203 84.113C148.267 82.0467 151.219 79.8081 154.16 77.548C157.666 74.861 161.23 72.2511 164.854 69.7184C168.08 67.4368 171.156 64.8753 174.317 62.4807C176.629 60.7265 178.92 58.9399 181.307 57.304C184.619 55.0332 187.958 52.7946 191.404 50.7013C195.706 48.0915 200.077 45.5946 204.561 43.2914C206.527 42.2493 208.6 41.4247 210.744 40.8323C212.964 40.1782 215.307 40.0547 217.583 40.4717C221.557 41.2735 225.057 42.8341 227.729 45.7453C231.493 49.8188 234.278 54.4951 235.601 59.9839C236.235 62.5937 236.859 65.1982 236.778 67.878C236.619 70.8163 236.246 73.7389 235.66 76.6225C235.061 79.8132 234.181 82.9446 233.031 85.9803C231.901 89.0637 230.547 92.0664 229.132 95.0368C226.369 100.827 223.62 106.626 220.885 112.434C218.078 118.397 215.718 124.547 213.325 130.682C212.621 132.49 211.992 134.336 211.282 136.144L201.9 136.144Z" fill="#98CB46"/>
<path d="M58.3411 136.144C61.2607 129.789 64.8738 123.896 70.2666 119.328C73.5487 116.477 77.4554 114.44 81.6705 113.381C85.2567 112.499 88.6279 112.467 91.9668 114.059C94.9885 115.501 97.1714 117.918 99.2468 120.447C101.742 123.482 104 126.727 107.645 128.605C110.515 130.123 113.811 130.634 117.006 130.058C119.073 129.735 121.061 129.021 122.861 127.954C131.034 122.831 139.109 117.546 147.513 112.784C152.401 110.018 157.03 106.789 161.842 103.878C165.961 101.392 170.219 99.1373 174.854 97.7275C177.62 96.7977 180.564 96.5196 183.456 96.9149C187.72 97.6145 192.086 100.423 193.521 105.353C194.866 109.954 194.731 114.528 194.597 119.128C194.521 121.528 193.806 123.934 193.113 126.291C192.091 129.729 190.537 132.926 189.016 136.144L179.607 136.144C180.085 135.067 180.569 134.04 181.042 132.985C182.514 129.845 183.772 126.609 184.806 123.299C185.161 122.072 185.101 120.818 185.44 119.623C186.295 116.589 185.849 113.597 185.053 110.658C184.618 109.044 183.44 108.178 181.671 107.844C178.074 107.171 174.966 108.544 171.907 109.927C167.224 112.047 162.976 114.947 158.6 117.616C153.261 120.877 147.906 124.101 142.47 127.232C137.556 130.068 132.792 133.152 127.996 136.16L100.279 136.16C99.1339 135.304 97.9457 134.502 96.8596 133.577C93.9454 131.096 91.6281 128.056 89.0742 125.236C88.7728 124.832 88.373 124.511 87.9128 124.305C84.8857 123.116 81.9985 123.95 79.2564 125.118C74.1593 127.27 70.9924 131.51 68.2664 136.117L58.3411 136.144Z" fill="#98CB46"/>
</svg>
