<svg width="204" height="105" viewBox="0 0 204 105" fill="none" xmlns="http://www.w3.org/2000/svg">
<path d="M30.2639 0.0248943C30.2224 1.50201 29.4845 2.78827 29.0409 4.13677C27.4448 8.99965 25.3097 13.6551 23.2991 18.352C21.2262 23.1568 19.0248 27.8952 16.9105 32.6709C15.7745 35.2434 14.6386 37.8242 13.6312 40.4465C12.8435 42.4921 12.3377 44.6497 11.5583 46.6911C10.8121 48.6163 10.3146 50.6121 9.74663 52.583C9.27817 54.2842 8.8097 56.0019 8.50291 57.7571C7.83891 61.0635 7.55929 64.4357 7.66962 67.8064C7.78333 69.5824 8.0258 71.3477 8.39512 73.0884C8.78751 75.0639 9.29554 77.0146 9.91661 78.9305C10.8111 81.6178 12.1387 84.1406 13.8468 86.3991C16.3351 89.7822 19.6675 92.452 23.5105 94.1415C25.9606 95.2535 28.4854 96.0253 31.2589 95.9091C32.9835 95.8385 34.733 96.0667 36.4328 95.8385C38.5005 95.6035 40.5421 95.1771 42.5311 94.5647C45.606 93.5458 48.529 92.1152 51.2206 90.3118C54.4626 88.1791 57.2485 85.4987 60.0013 82.7893C63.9895 78.86 67.8782 74.8518 71.9286 70.9764C74.2295 68.7815 76.5552 66.6239 78.939 64.5286C81.8411 61.9771 84.9087 59.6207 88.1218 57.4749C90.7233 55.7332 93.4286 54.1522 96.2226 52.7407C98.1672 51.8015 100.197 51.0498 102.284 50.4959C104.934 49.773 107.681 49.4637 110.426 49.5789C112.378 49.7008 114.318 49.9671 116.23 50.3756C118.717 50.8196 121.184 51.4585 123.626 52.1183C125.859 52.7565 128.057 53.5141 130.209 54.3879C133.028 55.4874 135.74 56.8193 138.501 58.006C141.125 59.1263 143.795 59.9561 146.651 59.9105C148.185 59.8856 149.669 59.4043 151.166 59.0226C153.22 58.4616 155.194 57.6417 157.041 56.5828C161.601 54.0933 165.403 50.6246 168.773 46.6994C171.848 43.0739 174.649 39.2238 177.152 35.1812C179.461 31.505 181.579 27.7126 183.702 23.941C185.207 21.2689 186.492 18.4806 188.005 15.821C190.078 12.1655 191.915 8.38971 194.029 4.755C194.945 3.18659 195.637 1.48127 196.719 0H203.56C203.297 0.924709 202.902 1.80653 202.387 2.61815C199.692 7.34411 197.242 12.1987 194.846 17.0782C192.188 22.4721 189.415 27.8412 186.554 33.1481C184.185 37.5875 181.554 41.8825 178.677 46.0106C177.201 48.1184 175.568 50.1308 173.918 52.1224C172.206 54.1949 170.342 56.1366 168.342 57.9313C165.239 60.7752 161.79 63.2162 158.077 65.1966C155.44 66.5898 152.604 67.5694 149.669 68.101C147.223 68.5245 144.716 68.4497 142.298 67.8811C139.662 67.2582 137.094 66.3742 134.633 65.2422C131.607 63.8605 128.646 62.3378 125.541 61.1179C123.278 60.2366 120.972 59.4722 118.63 58.8276C116.852 58.3296 115.048 57.9396 113.241 57.5454C111.686 57.2052 110.02 57.2882 108.403 57.3131C106.169 57.3178 103.95 57.6893 101.836 58.4126C97.4712 60.002 93.3568 62.2097 89.6185 64.9684C82.2929 70.3292 76.1199 76.9057 69.8847 83.3992C66.6593 86.7601 63.5252 90.2164 60.1464 93.4237C56.3497 97.0456 51.9823 100.016 47.22 102.216C44.4489 103.476 41.5413 104.41 38.5554 105H28.8129C28.6247 104.918 28.4289 104.856 28.2283 104.813C25.6754 104.52 23.1753 103.875 20.7992 102.896C17.7527 101.703 14.935 99.9917 12.4704 97.8385C9.39425 95.1083 7.08092 91.8594 5.14486 88.2953C4.26597 86.702 3.72702 84.9759 3.04297 83.2872C2.07059 80.8687 1.31178 78.3696 0.775253 75.8186C0.485051 74.4825 0.257036 73.134 0 71.7897V59.5495C0.290202 57.8317 0.414574 56.0683 0.903771 54.4045C1.66244 51.7822 2.2843 49.1225 3.17149 46.521C4.02551 44.0315 4.82979 41.517 5.71698 39.0524C7.10994 35.177 8.76824 31.4095 10.4597 27.6628C12.4662 23.2107 14.5391 18.7918 16.5 14.3189C17.864 11.207 19.1284 8.04947 20.3431 4.87533C20.9526 3.28618 21.7071 1.73023 21.9724 0.0166004L30.2639 0.0248943Z" fill="#98CB46"/>
<path d="M47.8832 0.0249786C47.2614 1.72616 46.6768 3.44393 46.0135 5.12851C44.2516 9.60551 42.4316 14.0576 40.2841 18.3687C39.2725 20.4059 38.3107 22.4639 37.2743 24.4887C35.4999 27.9409 33.7297 31.3972 32.0133 34.8618C30.4048 38.1231 28.8211 41.43 27.9339 44.961C27.2582 47.6414 26.429 50.3881 26.8104 53.1972C27.1546 55.4766 27.8836 57.6808 28.9662 59.7156C29.7954 61.3753 31.0391 62.7113 32.1336 64.1677C33.6426 66.18 37.1499 66.6779 39.5296 66.1676C42.9581 65.429 45.686 63.3586 48.6502 61.757C51.233 60.367 53.7453 58.8525 56.2162 57.3132C58.6041 55.807 60.9133 54.1722 63.1727 52.4793C66.9039 49.662 70.635 46.7783 74.4243 44.0357C78.2135 41.2931 82.1105 38.4301 86.024 35.7082C90.5387 32.5507 94.9498 29.223 100.024 26.9575C102.641 25.782 105.386 24.9158 108.204 24.3767C110.267 23.9993 112.364 23.8449 114.46 23.9162C118.228 24.0074 121.727 25.1153 125.127 26.7252C127.637 27.9386 130.014 29.4098 132.22 31.115C133.779 32.3017 135.197 33.6834 136.648 35.0112C138.007 36.2559 139.421 37.3886 141.208 37.9944C141.36 38.0742 141.524 38.1288 141.693 38.1562C143.148 38.1355 144.595 38.5712 145.996 38.5463C148.786 38.455 151.419 37.7662 153.77 35.9696C157.115 33.4179 159.329 29.9782 161.734 26.6671C165.465 21.5387 168.806 16.153 172.185 10.7922C174.461 7.17822 176.812 3.61405 179.129 0.0249786H185.348C183.49 3.16178 181.616 6.29444 179.78 9.43955C178.424 11.7548 176.994 14.0286 175.634 16.348C173.669 19.7462 171.513 23.0199 169.416 26.3061C167.716 28.9533 165.899 31.5147 163.964 33.9904C162.382 36.081 160.652 38.0542 158.786 39.8948C156.419 42.1561 153.753 44.0025 150.594 44.9568C147.631 45.8063 144.521 46.0073 141.473 45.546C138.565 45.1147 135.826 43.9096 133.542 42.0565C130.943 40.011 128.605 37.65 125.865 35.7829C124.04 34.6125 122.111 33.6138 120.102 32.7996C116.396 31.1773 112.495 31.7125 108.685 31.8619C106.396 31.9532 104.124 32.8287 102.031 33.8701C98.4201 35.73 94.9357 37.8258 91.6001 40.1437C89.237 41.737 86.961 43.4631 84.6932 45.2058C81.9902 47.2776 79.2416 49.29 76.4474 51.2429C73.9599 53.0021 71.5886 54.9772 69.1509 56.8236C67.3682 58.1762 65.6021 59.5537 63.7614 60.8151C61.2076 62.5661 58.6331 64.2922 55.9757 65.9062C52.6591 67.9186 49.2886 69.8438 45.8311 71.6197C44.3154 72.4232 42.7168 73.059 41.0635 73.5159C39.3516 74.0201 37.5454 74.1154 35.7901 73.7939C32.7264 73.1756 30.0275 71.9723 27.9671 69.7276C25.0651 66.5867 22.9176 62.981 21.8977 58.7488C21.4085 56.7364 20.9276 54.7282 20.9898 52.6619C21.1121 50.3963 21.4004 48.1428 21.8521 45.9194C22.3142 43.4592 22.9926 41.0446 23.8794 38.7039C24.75 36.3265 25.7947 34.0112 26.8851 31.7208C29.016 27.2563 31.1358 22.7848 33.2446 18.3064C35.4087 13.7091 37.2287 8.96653 39.0735 4.23643C39.6166 2.84229 40.1017 1.41911 40.6489 0.0249786H47.8832Z" fill="#98CB46"/>
<path d="M158.575 0.0249365C156.324 4.92516 153.538 9.46855 149.38 12.9912C146.849 15.1893 143.837 16.76 140.587 17.5761C137.821 18.2566 135.222 18.2815 132.648 17.0533C130.318 15.9413 128.634 14.0783 127.034 12.1282C125.111 9.78804 123.369 7.28606 120.559 5.83799C118.345 4.66735 115.804 4.27291 113.341 4.7177C111.747 4.9667 110.214 5.51729 108.826 6.34004C102.525 10.2901 96.2977 14.3646 89.8179 18.0367C86.0494 20.1694 82.4799 22.6589 78.7695 24.9036C75.5939 26.8206 72.3104 28.5591 68.7368 29.6462C66.6034 30.3631 64.3334 30.5775 62.1036 30.2727C58.8161 29.7333 55.4497 27.5674 54.3428 23.7667C53.3064 20.2192 53.41 16.6923 53.5137 13.1447C53.5717 11.2942 54.1231 9.4395 54.6579 7.62215C55.4456 4.9708 56.6437 2.50617 57.8169 0.0249365H65.072C64.703 0.854779 64.3299 1.64728 63.9651 2.46052C62.8301 4.8815 61.8605 7.37676 61.0631 9.92911C60.7894 10.8751 60.835 11.8419 60.5739 12.763C59.9147 15.1032 60.2588 17.4101 60.8724 19.6756C61.2082 20.9204 62.1161 21.5884 63.48 21.8456C66.2535 22.3643 68.6498 21.3063 71.0087 20.2399C74.6196 18.6051 77.8948 16.3687 81.2694 14.3107C85.3861 11.7963 89.5153 9.31088 93.7066 6.89603C97.4958 4.7094 101.169 2.3319 104.867 0.0124893H126.238C127.121 0.672214 128.037 1.29044 128.875 2.00411C131.122 3.91689 132.909 6.26121 134.878 8.43539C135.11 8.74727 135.419 8.99439 135.773 9.15321C138.107 10.0702 140.334 9.42706 142.448 8.52668C146.378 6.86699 148.82 3.5974 150.922 0.0456775L158.575 0.0249365Z" fill="#98CB46"/>
</svg>
