<svg width="70" height="77" viewBox="0 0 70 77" fill="none" xmlns="http://www.w3.org/2000/svg">
<path d="M37.8884 0.28679C31.9854 2.78602 30.4822 10.5047 31.7484 16.4544C32.5448 21.8403 36.7403 27.78 42.5226 27.3755C47.3543 26.414 49.802 20.8903 50.1024 16.2181C50.3695 10.4021 48.3525 3.3316 42.7819 0.667618C41.2456 -0.0346965 39.4837 -0.218198 37.8884 0.28679ZM13.0452 7.87715C8.06885 9.73685 7.19701 16.4115 8.94263 21.0517C10.8471 27.3822 16.423 33.4946 23.2155 33.1369C28.102 32.2596 29.7855 26.3087 28.7908 21.8292C27.4225 14.9287 22.0546 7.6581 14.7149 7.60707C14.1482 7.61607 13.5835 7.70371 13.0452 7.87715ZM59.8761 16.2607C53.2014 18.7623 51.0212 27.2996 52.6528 33.9572C53.5495 38.3418 57.8923 42.9122 62.4596 41.2517C69.203 38.4716 71.1225 29.4815 68.9714 22.7908C67.788 18.9229 64.0302 15.2175 59.8761 16.2607ZM0.354245 43.3593C1.85895 50.8253 9.36714 57.5601 16.9009 55.8474C21.2977 54.2319 21.8837 48.4015 20.1603 44.4304C17.9662 38.4687 12.0733 33.4336 6.55242 34.1699C1.03156 34.9061 -0.86429 39.5164 0.354245 43.3593ZM37.2995 39.2645C30.3673 41.3161 25.3561 47.714 23.7664 54.8474C22.2714 60.2682 21.4726 66.1429 22.639 71.753C23.9758 75.9513 29.0398 78.286 32.8356 76.2579C38.3825 73.8172 42.3602 68.2995 48.577 67.2906C53.6772 66.2263 58.9212 68.8856 63.9362 67.3531C68.8755 66.1031 70.0507 59.6763 66.9006 55.8369C63.053 50.145 57.5634 45.8237 51.9481 42.1288C47.5561 39.4793 42.2791 37.629 37.2995 39.2645Z" fill="white" fill-opacity="0.22"/>
</svg>
