<svg width="39" height="35" viewBox="0 0 39 35" fill="none" xmlns="http://www.w3.org/2000/svg">
<path fill-rule="evenodd" clip-rule="evenodd" d="M0 13.5039C0 8.77708 1.29143e-07 6.41369 0.944602 4.60829C1.77552 3.02021 3.10135 1.72907 4.73209 0.919889C6.586 -3.77294e-07 9.01288 0 13.8667 0H25.1333C29.9871 0 32.414 -3.77294e-07 34.268 0.919889C35.8986 1.72907 37.2244 3.02021 38.0553 4.60829C39 6.41369 39 8.77708 39 13.5039V16.0359C39 20.7627 39 23.126 38.0553 24.9316C37.2244 26.5195 35.8986 27.8106 34.268 28.6198C32.414 29.5398 29.9871 29.5398 25.1333 29.5398H9.56412C8.9895 29.5398 8.43839 29.7621 8.03207 30.1578L3.69874 34.3777C2.3338 35.707 0 34.7656 0 32.8858V29.5398V18.9898V13.5039ZM13 8.43993C11.8034 8.43993 10.8333 9.38461 10.8333 10.5499C10.8333 11.7152 11.8034 12.6599 13 12.6599H26C27.1967 12.6599 28.1667 11.7152 28.1667 10.5499C28.1667 9.38461 27.1967 8.43993 26 8.43993H13ZM13 16.8799C11.8034 16.8799 10.8333 17.8245 10.8333 18.9898C10.8333 20.1552 11.8034 21.0998 13 21.0998H19.5C20.6967 21.0998 21.6667 20.1552 21.6667 18.9898C21.6667 17.8245 20.6967 16.8799 19.5 16.8799H13Z" fill="#353C52"/>
</svg>
