<svg width="193" height="100" viewBox="0 0 193 100" fill="none" xmlns="http://www.w3.org/2000/svg">
<path d="M164.306 99.5293C164.345 98.1288 165.045 96.9093 165.466 95.6308C166.979 91.0202 169.003 86.6063 170.91 82.153C172.875 77.5975 174.962 73.1049 176.967 68.5769C178.044 66.1378 179.121 63.6909 180.076 61.2046C180.823 59.2652 181.302 57.2195 182.041 55.284C182.749 53.4587 183.22 51.5664 183.759 49.6978C184.203 48.0849 184.647 46.4562 184.938 44.7921C185.568 41.6572 185.833 38.46 185.728 35.2641C185.62 33.5803 185.391 31.9066 185.04 30.2561C184.668 28.3831 184.187 26.5336 183.598 24.7171C182.75 22.1692 181.491 19.7773 179.872 17.636C177.512 14.4284 174.353 11.8971 170.709 10.2952C168.386 9.24088 165.992 8.50917 163.363 8.61932C161.728 8.6862 160.069 8.46983 158.457 8.6862C156.497 8.90906 154.561 9.31336 152.675 9.89392C149.76 10.86 146.988 12.2164 144.437 13.9262C141.363 15.9483 138.721 18.4896 136.111 21.0585C132.33 24.784 128.643 28.5842 124.803 32.2585C122.621 34.3396 120.416 36.3853 118.156 38.3719C115.405 40.791 112.496 43.0252 109.45 45.0596C106.983 46.711 104.418 48.21 101.769 49.5483C99.9254 50.4388 98.0012 51.1514 96.0225 51.6766C93.5092 52.362 90.9053 52.6553 88.3026 52.546C86.4522 52.4305 84.6129 52.178 82.7997 51.7907C80.4413 51.3697 78.1025 50.7639 75.7874 50.1384C73.6698 49.5333 71.5862 48.815 69.5455 47.9865C66.8726 46.944 64.302 45.6812 61.6841 44.5561C59.196 43.4939 56.6647 42.7071 53.9564 42.7504C52.5021 42.774 51.0949 43.2303 49.6759 43.5923C47.7289 44.1242 45.8574 44.9015 44.1062 45.9054C39.7824 48.2658 36.178 51.5546 32.9823 55.2761C30.0667 58.7136 27.4114 62.3639 25.0385 66.1968C22.8491 69.6823 20.8405 73.278 18.828 76.8539C17.4012 79.3874 16.1827 82.031 14.748 84.5527C12.7826 88.0185 11.0413 91.5985 9.0367 95.0446C8.16801 96.5316 7.5116 98.1485 6.48569 99.5529L7.62939e-05 99.5529C0.249497 98.6762 0.624176 97.8401 1.11247 97.0706C3.6674 92.5898 5.99043 87.9871 8.26236 83.3607C10.7819 78.2466 13.4115 73.156 16.1237 68.1245C18.3703 63.9153 20.8641 59.8431 23.592 55.9292C24.9913 53.9307 26.54 52.0228 28.1044 50.1345C29.7273 48.1695 31.4944 46.3285 33.3911 44.6269C36.3331 41.9305 39.603 39.6162 43.1235 37.7385C45.6241 36.4176 48.3126 35.4888 51.0949 34.9847C53.4148 34.5832 55.7918 34.6542 58.0836 35.1933C60.5832 35.7839 63.0178 36.622 65.3514 37.6953C68.2208 39.0053 71.0273 40.449 73.9714 41.6056C76.117 42.4412 78.304 43.166 80.5238 43.7772C82.2101 44.2492 83.9199 44.619 85.6337 44.9928C87.1077 45.3153 88.6878 45.2367 90.2208 45.2131C92.3392 45.2086 94.4425 44.8564 96.447 44.1706C100.585 42.6636 104.486 40.5704 108.031 37.9549C114.976 32.8722 120.829 26.6369 126.741 20.4802C129.799 17.2937 132.77 14.0167 135.974 10.9758C139.574 7.54176 143.714 4.72529 148.23 2.63969C150.857 1.44525 153.614 0.559456 156.445 6.18936e-07L165.682 1.42647e-06C165.86 0.0772796 166.046 0.136575 166.236 0.177026C168.657 0.454698 171.027 1.06634 173.28 1.99452C176.168 3.12613 178.84 4.74847 181.177 6.79003C184.093 9.37857 186.286 12.4589 188.122 15.8381C188.955 17.3488 189.466 18.9853 190.115 20.5865C191.037 22.8795 191.756 25.2489 192.265 27.6676C192.54 28.9343 192.756 30.2129 193 31.4875L193 43.0927C192.725 44.7213 192.607 46.3933 192.143 47.9708C191.424 50.4571 190.834 52.9787 189.993 55.4453C189.183 57.8057 188.421 60.1897 187.58 62.5265C186.259 66.2008 184.687 69.7728 183.083 73.3252C181.18 77.5463 179.215 81.736 177.356 85.9768C176.063 88.9273 174.864 91.921 173.712 94.9305C173.134 96.4372 172.419 97.9125 172.167 99.5372L164.306 99.5293Z" fill="#98CB46"/>
<path d="M147.6 99.5292C148.19 97.9163 148.744 96.2877 149.373 94.6905C151.043 90.4457 152.769 86.2246 154.805 82.1372C155.764 80.2056 156.676 78.2544 157.659 76.3346C159.341 73.0615 161.019 69.7845 162.647 66.4997C164.172 63.4076 165.673 60.2722 166.514 56.9244C167.155 54.3831 167.941 51.7788 167.58 49.1155C167.253 46.9543 166.562 44.8644 165.536 42.9352C164.75 41.3616 163.57 40.0949 162.533 38.7141C161.102 36.8061 157.777 36.334 155.52 36.8179C152.27 37.5181 149.683 39.4812 146.873 40.9997C144.424 42.3176 142.042 43.7535 139.699 45.213C137.435 46.641 135.246 48.191 133.104 49.7961C129.566 52.4672 126.029 55.2013 122.436 57.8017C118.843 60.402 115.148 63.1165 111.438 65.6971C107.157 68.6909 102.975 71.8459 98.164 73.9939C95.6828 75.1085 93.0801 75.9296 90.4088 76.4408C88.453 76.7986 86.4645 76.945 84.4774 76.8775C80.9045 76.7909 77.587 75.7405 74.3638 74.2142C71.984 73.0637 69.7301 71.6688 67.6384 70.052C66.1605 68.9269 64.8162 67.6169 63.4405 66.358C62.1512 65.1778 60.8109 64.1039 59.1167 63.5295C58.9727 63.4539 58.8174 63.4021 58.6568 63.3761C57.2772 63.3958 55.9054 62.9827 54.5768 63.0063C51.9315 63.0929 49.4355 63.7459 47.2068 65.4493C44.0347 67.8687 41.9358 71.1299 39.656 74.2692C36.1184 79.1316 32.9503 84.2379 29.7468 89.3206C27.5888 92.7471 25.3601 96.1264 23.1629 99.5292L17.2669 99.5292C19.0278 96.5552 20.8045 93.585 22.5458 90.6031C23.8311 88.4079 25.1872 86.2521 26.4764 84.053C28.3396 80.8311 30.3835 77.7272 32.3725 74.6115C33.984 72.1016 35.707 69.6731 37.5413 67.3258C39.0407 65.3437 40.6814 63.4728 42.4507 61.7278C44.6951 59.5838 47.2225 57.8331 50.2177 56.9283C53.0267 56.1229 55.976 55.9324 58.8652 56.3697C61.6225 56.7786 64.2194 57.9212 66.3846 59.6782C68.8491 61.6176 71.066 63.856 73.6642 65.6263C75.3942 66.736 77.2232 67.6829 79.1278 68.4548C82.6418 69.993 86.3406 69.4855 89.9529 69.3439C92.1226 69.2574 94.2766 68.4273 96.2616 67.4399C99.6849 65.6765 102.989 63.6894 106.151 61.4917C108.392 59.9811 110.55 58.3446 112.7 56.6923C115.262 54.7279 117.868 52.82 120.518 50.9684C122.876 49.3004 125.125 47.4278 127.436 45.6772C129.126 44.3947 130.8 43.0886 132.546 41.8927C134.967 40.2326 137.408 38.5961 139.927 37.0657C143.072 35.1578 146.268 33.3324 149.546 31.6487C150.983 30.8868 152.499 30.284 154.066 29.8508C155.689 29.3727 157.402 29.2824 159.066 29.5873C161.971 30.1734 164.529 31.3143 166.483 33.4426C169.235 36.4206 171.271 39.8392 172.238 43.8518C172.701 45.7598 173.157 47.6638 173.098 49.623C172.982 51.771 172.709 53.9076 172.281 56.0157C171.843 58.3483 171.199 60.6376 170.359 62.8568C169.533 65.111 168.543 67.3061 167.509 69.4777C165.489 73.7106 163.479 77.9501 161.479 82.1962C159.427 86.555 157.702 91.0516 155.953 95.5363C155.438 96.8581 154.978 98.2074 154.459 99.5292L147.6 99.5292Z" fill="#98CB46"/>
<path d="M42.65 99.5293C44.7843 94.8832 47.4258 90.5756 51.3682 87.2356C53.7676 85.1516 56.6237 83.6624 59.7052 82.8886C62.3269 82.2434 64.7915 82.2198 67.2324 83.3843C69.4415 84.4386 71.0373 86.2049 72.5545 88.0539C74.3784 90.2726 76.0293 92.6448 78.6943 94.0178C80.7925 95.1277 83.2019 95.5017 85.5375 95.08C87.049 94.8439 88.5017 94.3218 89.818 93.5418C95.7927 89.7966 101.697 85.9335 107.84 82.4519C111.413 80.4299 114.797 78.0695 118.315 75.9412C121.326 74.1237 124.439 72.4754 127.828 71.4447C129.85 70.7649 132.003 70.5617 134.117 70.8507C137.234 71.3621 140.425 73.4156 141.475 77.0191C142.458 80.3827 142.359 83.7265 142.261 87.0901C142.206 88.8446 141.683 90.6031 141.176 92.3262C140.429 94.84 139.293 97.1768 138.181 99.5293L131.302 99.5293C131.652 98.7425 132.006 97.9911 132.352 97.22C133.428 94.9247 134.347 92.5588 135.103 90.1389C135.363 89.242 135.319 88.3253 135.567 87.452C136.192 85.2332 135.866 83.046 135.284 80.898C134.966 79.7178 134.105 79.0845 132.812 78.8405C130.182 78.3488 127.91 79.352 125.674 80.363C122.25 81.913 119.145 84.0334 115.945 85.9846C112.042 88.3686 108.127 90.7251 104.153 93.0146C100.561 95.0878 97.078 97.342 93.5718 99.5411L73.3092 99.5411C72.472 98.9156 71.6033 98.3294 70.8093 97.6528C68.6789 95.8392 66.9848 93.6165 65.1177 91.5551C64.8974 91.2594 64.6051 91.0251 64.2687 90.8745C62.0557 90.0051 59.9449 90.6149 57.9403 91.4686C54.214 93.0422 51.8989 96.1421 49.906 99.5096L42.65 99.5293Z" fill="#98CB46"/>
</svg>
