<svg width="35" height="32" viewBox="0 0 35 32" fill="none" xmlns="http://www.w3.org/2000/svg">
<path fill-rule="evenodd" clip-rule="evenodd" d="M5.88226 0.834669C7.06263 0.285611 8.33502 0 9.62504 0C10.9151 0 12.1874 0.285611 13.3678 0.834669C14.5476 1.38344 15.6074 2.18211 16.4918 3.17542C17.0313 3.78131 17.9687 3.78131 18.5082 3.17542C20.2963 1.16735 22.7619 1.77849e-05 25.375 1.77849e-05C27.9881 1.77849e-05 30.4537 1.16735 32.2418 3.17542C34.0247 5.17754 35 7.85783 35 10.6195C35 13.3813 34.0247 16.0616 32.2418 18.0636L21.395 30.2443C19.3106 32.5852 15.6895 32.5852 13.605 30.2443L2.75823 18.0636C1.874 17.0708 1.18079 15.9014 0.710535 14.6266C0.240292 13.3517 0 11.9906 0 10.6195C0 9.24855 0.240292 7.88747 0.710535 6.61261C1.18079 5.33767 1.874 4.16835 2.75823 3.17542C3.64275 2.18211 4.70253 1.38344 5.88226 0.834669Z" fill="#FF4E98"/>
</svg>
