<svg width="43" height="43" viewBox="0 0 43 43" fill="none" xmlns="http://www.w3.org/2000/svg">
<path d="M23.0952 10.5331H9.15607C6.09232 10.5331 3.58398 13.0414 3.58398 16.1052V36.4585C3.58398 39.0564 5.44732 40.1672 7.72273 38.8951L14.764 34.9714C15.5165 34.5593 16.7348 34.5593 17.4694 34.9714L24.5107 38.8951C26.804 40.1493 28.6673 39.0564 28.6673 36.4585V16.1052C28.6673 13.0414 26.159 10.5331 23.0952 10.5331Z" fill="#353C52"/>
<path d="M39.4164 9.15546V29.5088C39.4164 32.1067 37.5531 33.1996 35.2776 31.9455L31.8197 30.0105C31.5331 29.8492 31.3539 29.5446 31.3539 29.2221V16.1071C31.3539 11.5563 27.6451 7.84754 23.0943 7.84754H15.8023C15.1394 7.84754 14.6735 7.14879 14.9781 6.57546C15.9098 4.80171 17.7731 3.58337 19.9051 3.58337H33.8443C36.9081 3.58337 39.4164 6.09171 39.4164 9.15546Z" fill="#353C52"/>
</svg>
