<svg width="70" height="77" viewBox="0 0 70 77" fill="none" xmlns="http://www.w3.org/2000/svg">
<path d="M31.923 0.286783C37.8261 2.78602 39.3293 10.5047 38.063 16.4544C37.2666 21.8403 33.0711 27.78 27.2888 27.3755C22.4571 26.414 20.0094 20.8903 19.709 16.2181C19.4419 10.402 21.4589 3.33159 27.0295 0.66761C28.5659 -0.0347042 30.3277 -0.218205 31.923 0.286783ZM56.7663 7.87714C61.7426 9.73685 62.6144 16.4115 60.8688 21.0517C58.9644 27.3822 53.3885 33.4946 46.5959 33.1369C41.7094 32.2596 40.0259 26.3087 41.0206 21.8292C42.389 14.9287 47.7568 7.6581 55.0965 7.60706C55.6632 7.61606 56.2279 7.70371 56.7663 7.87714ZM9.93536 16.2607C16.61 18.7623 18.7902 27.2995 17.1587 33.9572C16.262 38.3418 11.9191 42.9122 7.35182 41.2517C0.608426 38.4716 -1.31106 29.4815 0.839976 22.7908C2.02347 18.9229 5.78124 15.2175 9.93536 16.2607ZM69.4572 43.3593C67.9525 50.8253 60.4443 57.5601 52.9105 55.8474C48.5137 54.2319 47.9277 48.4015 49.6511 44.4304C51.8452 38.4687 57.7381 33.4336 63.259 34.1698C68.7799 34.9061 70.6757 39.5164 69.4572 43.3593ZM32.5119 39.2645C39.4441 41.3161 44.4553 47.714 46.045 54.8473C47.5401 60.2682 48.3388 66.1429 47.1725 71.753C45.8356 75.9513 40.7716 78.286 36.9758 76.2579C31.4289 73.8172 27.4512 68.2995 21.2344 67.2906C16.1343 66.2263 10.8902 68.8856 5.87522 67.3531C0.935916 66.1031 -0.239279 59.6763 2.91082 55.8368C6.7584 50.145 12.248 45.8237 17.8633 42.1288C22.2553 39.4793 27.5323 37.629 32.5119 39.2645Z" fill="white" fill-opacity="0.22"/>
</svg>
