<svg width="18" height="18" viewBox="0 0 18 18" fill="none" xmlns="http://www.w3.org/2000/svg">
<path d="M12.1011 0.000334977C10.5023 0.185153 9.59453 1.93843 9.47902 3.4613C9.29016 4.81514 9.88103 6.54267 11.3027 6.85397C12.5347 6.96388 13.5148 5.80617 13.9174 4.70182C14.3929 3.31952 14.4068 1.47357 13.2531 0.437994C12.9326 0.160196 12.5211 -0.0085581 12.1011 0.000334977ZM5.57944 0.0728166C4.24912 0.169076 3.56726 1.71546 3.65979 2.95676C3.6711 4.61649 4.58233 6.48319 6.24404 6.87719C7.48328 7.01124 8.30953 5.69661 8.38653 4.54712C8.54467 2.78795 7.76543 0.656912 6.0008 0.125784C5.86365 0.0878948 5.7214 0.0690901 5.57944 0.0728166ZM16.2691 5.40296C14.4842 5.53381 13.3555 7.43644 13.2779 9.1557C13.184 10.2754 13.9072 11.6834 15.1249 11.6063C16.946 11.4132 18.0439 9.38303 17.9987 7.6191C17.987 6.6036 17.3436 5.44528 16.2691 5.40296ZM0.0138279 7.72386C-0.151434 9.62891 1.18132 11.7821 3.11739 11.9021C4.29084 11.8237 4.84416 10.4605 4.70968 9.38197C4.60251 7.79062 3.53875 6.16103 2.15665 5.94814C0.774547 5.73525 -0.00808606 6.71192 0.0138279 7.72386ZM9.20393 9.34899C7.38883 9.35322 5.7293 10.5403 4.84207 12.1465C4.0987 13.3468 3.49099 14.7056 3.37541 16.1396C3.4007 17.2455 4.45565 18.166 5.51349 17.9457C7.02235 17.7498 8.37067 16.7017 9.9397 16.8981C11.2436 17.0022 12.319 18.0135 13.6355 17.9988C14.9138 18.0469 15.6513 16.5816 15.1638 15.434C14.6392 13.7907 13.6221 12.3616 12.5305 11.0745C11.6597 10.1258 10.5192 9.30699 9.20393 9.34899Z" fill="white"/>
</svg>
