<svg width="27" height="36" viewBox="0 0 27 36" fill="none" xmlns="http://www.w3.org/2000/svg">
<path fill-rule="evenodd" clip-rule="evenodd" d="M26.546 23.2845C26.2499 30.3568 20.4251 36 13.2801 36C5.94569 36 9.32229e-06 29.8544 9.32229e-06 22.7198C9.32229e-06 21.7662 -0.0170854 19.8604 1.41279 16.6449C2.26851 14.7205 2.80522 13.5116 3.10812 12.4065C3.27455 11.7992 3.59822 10.8343 4.5209 12.4065C5.06497 13.3336 5.08602 14.667 5.08602 14.667C5.08602 14.667 7.11025 13.1136 8.47669 10.1461C10.4799 5.79572 8.88159 3.19522 8.33541 1.38686C8.14638 0.761284 8.02771 -0.363006 9.32436 0.115361C10.6456 0.602911 14.1385 3.04801 15.9644 5.6252C18.5703 9.30337 19.4964 12.8304 19.4964 12.8304C19.4964 12.8304 20.3308 11.7948 20.6266 10.7112C20.9607 9.4876 20.9657 8.27572 22.0392 9.58113C23.0602 10.8225 24.5766 13.1555 25.43 15.3734C26.9797 19.4011 26.546 23.2845 26.546 23.2845Z" fill="url(#paint0_linear_26841_54)"/>
<path fill-rule="evenodd" clip-rule="evenodd" d="M13.2807 35.9999C8.20895 35.9999 4.09762 31.8885 4.09762 26.8168C4.09762 23.7566 5.33084 21.8986 7.89743 19.3791C9.54078 17.7658 11.0789 15.7844 11.7326 14.4352C11.8613 14.1696 12.1541 12.7855 13.2834 14.4061C13.8758 15.256 14.8044 16.7676 15.3999 18.0576C16.4264 20.2817 16.6714 22.4372 16.6714 22.4372C16.6714 22.4372 17.6774 21.8444 18.3667 20.318C18.5889 19.8261 19.0382 17.9638 20.2942 19.8258C21.2157 21.1922 22.4817 23.6491 22.4638 26.8168C22.4638 31.8885 18.3523 35.9999 13.2807 35.9999Z" fill="#FC9502"/>
<path fill-rule="evenodd" clip-rule="evenodd" d="M13.4212 25.9693C14.728 25.9693 14.728 28.3893 16.388 31.6205C17.4934 33.772 15.84 36.0001 13.4212 36.0001C11.0023 36.0001 9.74794 34.0393 9.74794 31.6205C9.74794 29.2018 12.1143 25.9693 13.4212 25.9693Z" fill="#FCE202"/>
<defs>
<linearGradient id="paint0_linear_26841_54" x1="13.3001" y1="36.0265" x2="13.3001" y2="0.0272035" gradientUnits="userSpaceOnUse">
<stop stop-color="#FF4C0D"/>
<stop offset="1" stop-color="#FC9502"/>
</linearGradient>
</defs>
</svg>
