<svg width="27" height="36" viewBox="0 0 27 36" fill="none" xmlns="http://www.w3.org/2000/svg">
<path fill-rule="evenodd" clip-rule="evenodd" d="M26.546 23.2846C26.2499 30.3568 20.4252 36 13.2802 36C5.9457 36 9.32231e-06 29.8544 9.32231e-06 22.7199C9.32231e-06 21.7662 -0.0170854 19.8604 1.41279 16.6449C2.26851 14.7206 2.80523 13.5116 3.10813 12.4066C3.27456 11.7992 3.59822 10.8343 4.52091 12.4066C5.06497 13.3336 5.08603 14.667 5.08603 14.667C5.08603 14.667 7.11026 13.1137 8.4767 10.1461C10.4799 5.79573 8.88161 3.19523 8.33542 1.38687C8.14639 0.761285 8.02772 -0.363007 9.32437 0.115361C10.6456 0.602913 14.1386 3.04801 15.9644 5.62521C18.5703 9.30339 19.4964 12.8304 19.4964 12.8304C19.4964 12.8304 20.3308 11.7948 20.6266 10.7112C20.9608 9.48762 20.9657 8.27573 22.0393 9.58114C23.0603 10.8226 24.5766 13.1555 25.4301 15.3734C26.9798 19.4011 26.546 23.2846 26.546 23.2846Z" fill="url(#paint0_linear_26841_45)"/>
<path fill-rule="evenodd" clip-rule="evenodd" d="M13.2807 36C8.20897 36 4.09763 31.8887 4.09763 26.8169C4.09763 23.7567 5.33085 21.8987 7.89745 19.3792C9.5408 17.7659 11.0789 15.7845 11.7326 14.4353C11.8613 14.1697 12.1542 12.7856 13.2834 14.4062C13.8758 15.2561 14.8044 16.7676 15.3999 18.0577C16.4264 20.2818 16.6714 22.4373 16.6714 22.4373C16.6714 22.4373 17.6774 21.8445 18.3667 20.3181C18.589 19.8262 19.0382 17.9639 20.2942 19.8259C21.2157 21.1923 22.4817 23.6492 22.4638 26.8169C22.4638 31.8887 18.3523 36 13.2807 36Z" fill="#FC9502"/>
<path fill-rule="evenodd" clip-rule="evenodd" d="M13.4212 25.9693C14.728 25.9693 14.728 28.3892 16.388 31.6204C17.4934 33.7719 15.84 36 13.4212 36C11.0024 36 9.74796 34.0392 9.74796 31.6204C9.74796 29.2017 12.1144 25.9693 13.4212 25.9693Z" fill="#FCE202"/>
<defs>
<linearGradient id="paint0_linear_26841_45" x1="13.3001" y1="36.0266" x2="13.3001" y2="0.0272036" gradientUnits="userSpaceOnUse">
<stop stop-color="#FF4C0D"/>
<stop offset="1" stop-color="#FC9502"/>
</linearGradient>
</defs>
</svg>
