<svg width="26" height="15" viewBox="0 0 26 15" fill="none" xmlns="http://www.w3.org/2000/svg">
<mask id="path-1-inside-1_26842_401" fill="white">
<path d="M18.0522 12.9912C17.5918 13.4508 17.5918 14.1957 18.0522 14.6553C18.5125 15.1147 19.2588 15.1147 19.7191 14.6553L25.2185 9.16563C26.139 8.24657 26.139 6.75662 25.2185 5.83756L19.7157 0.344619C19.2554 -0.114875 18.5092 -0.114875 18.0488 0.344631C17.5885 0.804125 17.5885 1.54913 18.0488 2.00862L22.37 6.32221H1.1787C0.527729 6.32221 0 6.84898 0 7.49883C0 8.14856 0.527729 8.67545 1.1787 8.67545H22.3755L18.0522 12.9912Z"/>
</mask>
<path d="M25.2185 9.16563L27.3472 11.2982L27.3474 11.298L25.2185 9.16563ZM25.2185 5.83756L27.3474 3.70516L27.3472 3.705L25.2185 5.83756ZM19.7157 0.344619L17.5869 2.4771L17.5869 2.47717L19.7157 0.344619ZM18.0488 0.344631L15.9202 -1.78809L15.9199 -1.78785L18.0488 0.344631ZM18.0488 2.00862L15.9199 4.1411L15.92 4.14116L18.0488 2.00862ZM22.37 6.32221V9.3354H29.6536L24.4988 4.18967L22.37 6.32221ZM22.3755 8.67545L24.5043 10.808L29.6591 5.66226H22.3755V8.67545ZM18.0522 12.9912L15.9234 10.8587C14.2838 12.4954 14.2838 15.1511 15.9234 16.7878L18.0522 14.6553L20.1809 12.5227C20.8998 13.2403 20.8998 14.4061 20.1809 15.1237L18.0522 12.9912ZM18.0522 14.6553L15.9234 16.7878C17.56 18.4215 20.2113 18.4215 21.8479 16.7878L19.7191 14.6553L17.5903 12.5227C18.3063 11.808 19.4649 11.808 20.1809 12.5227L18.0522 14.6553ZM19.7191 14.6553L21.8479 16.7878L27.3472 11.2982L25.2185 9.16563L23.0897 7.0331L17.5903 12.5227L19.7191 14.6553ZM25.2185 9.16563L27.3474 11.298C29.447 9.20184 29.447 5.80135 27.3474 3.70516L25.2185 5.83756L23.0896 7.96995C22.8311 7.71189 22.8311 7.2913 23.0896 7.03324L25.2185 9.16563ZM25.2185 5.83756L27.3472 3.705L21.8444 -1.78793L19.7157 0.344619L17.5869 2.47717L23.0897 7.97011L25.2185 5.83756ZM19.7157 0.344619L21.8445 -1.78786C20.2078 -3.42179 17.5567 -3.4214 15.9202 -1.78809L18.0488 0.344631L20.1773 2.47735C19.4616 3.19165 18.303 3.19204 17.5869 2.4771L19.7157 0.344619ZM18.0488 0.344631L15.9199 -1.78785C14.2805 -0.151209 14.2805 2.50446 15.9199 4.1411L18.0488 2.00862L20.1776 -0.123856C20.8965 0.593792 20.8965 1.75946 20.1776 2.47711L18.0488 0.344631ZM18.0488 2.00862L15.92 4.14116L20.2412 8.45474L22.37 6.32221L24.4988 4.18967L20.1775 -0.123916L18.0488 2.00862ZM22.37 6.32221V3.30902H1.1787V6.32221V9.3354H22.37V6.32221ZM1.1787 6.32221V3.30902C-1.13135 3.30902 -3.01319 5.17979 -3.01319 7.49883H0H3.01319C3.01319 8.51818 2.18681 9.3354 1.1787 9.3354V6.32221ZM0 7.49883H-3.01319C-3.01319 9.81756 -1.13155 11.6886 1.1787 11.6886V8.67545V5.66226C2.187 5.66226 3.01319 6.47956 3.01319 7.49883H0ZM1.1787 8.67545V11.6886H22.3755V8.67545V5.66226H1.1787V8.67545ZM22.3755 8.67545L20.2468 6.54292L15.9234 10.8587L18.0522 12.9912L20.1809 15.1237L24.5043 10.808L22.3755 8.67545Z" fill="white" mask="url(#path-1-inside-1_26842_401)"/>
</svg>
